<?xml version="1.0" encoding="UTF-8"?>
<!DOCTYPE svg PUBLIC "-//W3C//DTD SVG 1.1//EN" "http://www.w3.org/Graphics/SVG/1.1/DTD/svg11.dtd">
<svg xmlns="http://www.w3.org/2000/svg" version="1.1" width="500px" height="500px" style="shape-rendering:geometricPrecision; text-rendering:geometricPrecision; image-rendering:optimizeQuality; fill-rule:evenodd; clip-rule:evenodd" xmlns:xlink="http://www.w3.org/1999/xlink">
<g><path style="opacity:1" fill="#fefefe" d="M -0.5,-0.5 C 166.167,-0.5 332.833,-0.5 499.5,-0.5C 499.5,166.167 499.5,332.833 499.5,499.5C 332.833,499.5 166.167,499.5 -0.5,499.5C -0.5,332.833 -0.5,166.167 -0.5,-0.5 Z"/></g>
<g><path style="opacity:1" fill="#0d442d" d="M 128.5,172.5 C 160.401,169.959 187.068,180.459 208.5,204C 205.833,204.667 203.167,204.667 200.5,204C 179.424,183.148 154.091,174.814 124.5,179C 87.5515,187.282 64.3848,209.782 55,246.5C 49.7634,285.838 63.5967,316.338 96.5,338C 125.61,352.202 154.61,351.869 183.5,337C 189.458,332.711 195.124,328.044 200.5,323C 203.167,322.333 205.833,322.333 208.5,323C 181.944,350.642 149.944,359.976 112.5,351C 75.9714,337.8 54.8047,311.967 49,273.5C 46.2791,226.905 66.4458,194.738 109.5,177C 115.857,174.992 122.19,173.492 128.5,172.5 Z"/></g>
<g><path style="opacity:1" fill="#023d26" d="M 125.5,188.5 C 150.694,185.623 172.694,192.457 191.5,209C 272.89,209.008 354.223,209.675 435.5,211C 442.149,214.314 446.649,219.481 449,226.5C 449.972,251.896 449.638,277.229 448,302.5C 445.076,309.758 439.909,314.592 432.5,317C 352.167,317.333 271.833,317.667 191.5,318C 167.142,338.863 139.808,343.863 109.5,333C 75.7014,315.912 60.868,288.412 65,250.5C 72.9009,217.767 93.0676,197.1 125.5,188.5 Z"/></g>
<g><path style="opacity:1" fill="#e2e8e6" d="M 126.5,199.5 C 127.239,199.369 127.906,199.536 128.5,200C 127.398,202.401 127.231,204.901 128,207.5C 130.754,210.508 132.587,214.008 133.5,218C 133.251,220.664 132.085,222.831 130,224.5C 130.374,222.231 130.374,219.898 130,217.5C 127.192,213.855 125.025,209.855 123.5,205.5C 123.984,203.199 124.984,201.199 126.5,199.5 Z"/></g>
<g><path style="opacity:1" fill="#eaefed" d="M 108.5,206.5 C 109.239,206.369 109.906,206.536 110.5,207C 109.409,209.064 109.242,211.231 110,213.5C 111.667,216.167 113.333,218.833 115,221.5C 116.081,224.968 115.415,227.968 113,230.5C 112.487,224.96 110.487,219.96 107,215.5C 106.068,212.177 106.568,209.177 108.5,206.5 Z"/></g>
<g><path style="opacity:1" fill="#e3eae7" d="M 145.5,206.5 C 145.794,208.276 145.96,210.276 146,212.5C 148.578,216.491 150.745,220.657 152.5,225C 152.4,227.37 151.4,229.203 149.5,230.5C 149.406,228.761 149.239,226.761 149,224.5C 144.987,220.163 142.987,215.163 143,209.5C 144.045,208.627 144.878,207.627 145.5,206.5 Z"/></g>
<g><path style="opacity:1" fill="#205540" d="M 419.5,219.5 C 352.665,219.168 285.998,219.501 219.5,220.5C 218.957,220.44 218.624,220.107 218.5,219.5C 285.665,218.168 352.665,218.168 419.5,219.5 Z"/></g>
<g><path style="opacity:1" fill="#d8e1de" d="M 419.5,219.5 C 429.625,221.455 436.125,227.455 439,237.5C 439.667,254.833 439.667,272.167 439,289.5C 435.893,300.447 428.726,306.447 417.5,307.5C 351.331,307.832 285.331,307.499 219.5,306.5C 286.665,305.667 353.999,305.167 421.5,305C 428.573,302.928 433.406,298.428 436,291.5C 437.127,282.07 437.627,272.57 437.5,263C 437.627,253.43 437.127,243.93 436,234.5C 432.982,228.143 428.149,223.977 421.5,222C 353.999,221.833 286.665,221.333 219.5,220.5C 285.998,219.501 352.665,219.168 419.5,219.5 Z"/></g>
<g><path style="opacity:1" fill="#f3f6f5" d="M 299.5,233.5 C 314.962,231.466 322.129,238.133 321,253.5C 316.973,263.08 309.807,266.58 299.5,264C 286.195,253.884 286.195,243.717 299.5,233.5 Z"/></g>
<g><path style="opacity:1" fill="#f5f8f7" d="M 398.5,233.5 C 403.449,232.959 408.116,233.792 412.5,236C 414.016,237.897 414.683,240.064 414.5,242.5C 411.753,242.813 409.086,242.48 406.5,241.5C 406,240.119 405,239.453 403.5,239.5C 399.961,240.635 399.628,242.468 402.5,245C 406.805,245.903 410.639,247.737 414,250.5C 416.446,255.324 415.613,259.491 411.5,263C 404.432,265.919 398.265,264.753 393,259.5C 392.51,258.207 392.343,256.873 392.5,255.5C 395.247,255.187 397.914,255.52 400.5,256.5C 402.044,258.446 404.044,258.946 406.5,258C 407.86,256.062 407.527,254.396 405.5,253C 400.688,252.011 396.521,249.844 393,246.5C 391.102,240.387 392.935,236.053 398.5,233.5 Z"/></g>
<g><path style="opacity:1" fill="#f4f6f5" d="M 234.5,233.5 C 237.572,233.183 240.572,233.516 243.5,234.5C 247.073,244.389 250.74,254.222 254.5,264C 251.833,264.667 249.167,264.667 246.5,264C 245.433,260.025 242.767,258.525 238.5,259.5C 236.5,259.833 234.5,260.167 232.5,260.5C 231.754,261.736 231.421,263.07 231.5,264.5C 228.833,264.5 226.167,264.5 223.5,264.5C 226.884,254.066 230.551,243.732 234.5,233.5 Z"/></g>
<g><path style="opacity:1" fill="#f9fbfa" d="M 258.5,233.5 C 266.206,232.665 273.539,233.831 280.5,237C 285.299,241.842 286.799,247.675 285,254.5C 283.073,259.428 279.573,262.594 274.5,264C 269.177,264.499 263.844,264.666 258.5,264.5C 258.5,254.167 258.5,243.833 258.5,233.5 Z"/></g>
<g><path style="opacity:1" fill="#fbfcfc" d="M 326.5,233.5 C 329.247,233.187 331.914,233.52 334.5,234.5C 338.136,240.634 341.969,246.634 346,252.5C 346.5,246.175 346.666,239.842 346.5,233.5C 348.833,233.5 351.167,233.5 353.5,233.5C 353.5,243.833 353.5,254.167 353.5,264.5C 350.753,264.813 348.086,264.48 345.5,263.5C 342.162,257.488 338.328,251.821 334,246.5C 333.501,252.491 333.334,258.491 333.5,264.5C 331.167,264.5 328.833,264.5 326.5,264.5C 326.5,254.167 326.5,243.833 326.5,233.5 Z"/></g>
<g><path style="opacity:1" fill="#f4f7f6" d="M 368.5,233.5 C 371.833,233.5 375.167,233.5 378.5,233.5C 381.833,243.833 385.167,254.167 388.5,264.5C 385.833,264.5 383.167,264.5 380.5,264.5C 380.579,263.07 380.246,261.736 379.5,260.5C 375.541,259.34 371.541,259.173 367.5,260C 366.62,261.356 366.286,262.856 366.5,264.5C 363.833,264.5 361.167,264.5 358.5,264.5C 361.833,254.167 365.167,243.833 368.5,233.5 Z"/></g>
<g><path style="opacity:1" fill="#84a195" d="M 154.5,240.5 C 153.508,240.328 152.842,240.662 152.5,241.5C 145.925,240.118 139.259,239.284 132.5,239C 140.058,238.231 147.391,238.731 154.5,240.5 Z"/></g>
<g><path style="opacity:1" fill="#4c7565" d="M 266.5,240.5 C 266.5,246.167 266.5,251.833 266.5,257.5C 268.167,257.5 269.833,257.5 271.5,257.5C 269.735,258.461 267.735,258.795 265.5,258.5C 265.177,252.31 265.51,246.31 266.5,240.5 Z"/></g>
<g><path style="opacity:1" fill="#053f28" d="M 266.5,240.5 C 277.028,239.888 280.528,244.555 277,254.5C 275.512,256.16 273.679,257.16 271.5,257.5C 269.833,257.5 268.167,257.5 266.5,257.5C 266.5,251.833 266.5,246.167 266.5,240.5 Z"/></g>
<g><path style="opacity:1" fill="#033e27" d="M 301.5,240.5 C 310.657,239.489 314.49,243.489 313,252.5C 310.565,257.224 306.731,258.724 301.5,257C 296.193,251.428 296.193,245.928 301.5,240.5 Z"/></g>
<g><path style="opacity:1" fill="#f3f6f5" d="M 152.5,241.5 C 152.842,240.662 153.508,240.328 154.5,240.5C 160.449,241.427 166.115,243.261 171.5,246C 173.941,249.011 175.107,252.511 175,256.5C 179.98,252.407 185.48,251.574 191.5,254C 194.36,257.681 195.193,261.848 194,266.5C 191.897,273.213 188.397,279.046 183.5,284C 181.305,285.373 178.971,285.706 176.5,285C 173.688,283.023 171.022,280.856 168.5,278.5C 164.855,284.141 160.522,289.141 155.5,293.5C 161.155,294.413 166.488,296.247 171.5,299C 172.5,301.091 171.833,302.757 169.5,304C 157.658,307.871 145.492,309.371 133,308.5C 120.504,309.371 108.337,307.871 96.5,304C 108.384,305.983 120.384,306.649 132.5,306C 141.72,305.748 150.554,303.915 159,300.5C 159.22,296.876 157.386,294.876 153.5,294.5C 127.427,305.976 108.427,298.643 96.5,272.5C 96.8457,271.304 97.3457,271.304 98,272.5C 108.645,293.249 124.478,298.749 145.5,289C 154.903,282.052 161.236,272.886 164.5,261.5C 163.833,261.167 163.167,260.833 162.5,260.5C 143.198,265.532 123.864,265.699 104.5,261C 100.663,259.827 97.3294,257.827 94.5,255C 99.9428,256.776 105.61,258.109 111.5,259C 123.876,259.87 136.209,259.536 148.5,258C 153.383,256.928 158.05,255.261 162.5,253C 165.341,249.354 164.674,246.354 160.5,244C 157.846,243.059 155.179,242.226 152.5,241.5 Z"/></g>
<g><path style="opacity:1" fill="#f4f6f5" d="M 115.5,245.5 C 125.325,244.342 135.325,244.175 145.5,245C 149.377,245.257 153.043,246.257 156.5,248C 159.326,250.522 158.993,252.522 155.5,254C 138.325,258.909 121.325,258.575 104.5,253C 111.114,253.543 117.781,253.543 124.5,253C 126.651,252.735 128.318,251.735 129.5,250C 129.355,249.228 129.022,248.561 128.5,248C 124.297,246.431 119.964,245.598 115.5,245.5 Z"/></g>
<g><path style="opacity:1" fill="#1d4f39" d="M 238.5,242.5 C 240.002,245.654 241.336,248.987 242.5,252.5C 240.257,253.474 237.924,253.808 235.5,253.5C 235.894,249.653 236.894,245.986 238.5,242.5 Z"/></g>
<g><path style="opacity:1" fill="#21513c" d="M 372.5,243.5 C 373.497,243.47 374.164,243.97 374.5,245C 375.206,247.62 376.206,250.12 377.5,252.5C 374.833,253.833 372.167,253.833 369.5,252.5C 370.705,249.55 371.705,246.55 372.5,243.5 Z"/></g>
<g><path style="opacity:1" fill="#064029" d="M 177.5,259.5 C 180.187,259.336 182.854,259.503 185.5,260C 186.98,261.299 187.646,262.966 187.5,265C 187.135,268.763 185.968,272.263 184,275.5C 180.021,279.644 176.355,279.31 173,274.5C 172.219,273.271 171.719,271.938 171.5,270.5C 172.625,267.546 173.625,264.546 174.5,261.5C 175.739,261.058 176.739,260.391 177.5,259.5 Z"/></g>
<g><path style="opacity:1" fill="#fefffe" d="M 260.5,281.5 C 260.5,285.5 260.5,289.5 260.5,293.5C 262.167,293.5 263.833,293.5 265.5,293.5C 263.735,294.461 261.735,294.795 259.5,294.5C 259.182,289.968 259.515,285.634 260.5,281.5 Z"/></g>
<g><path style="opacity:1" fill="#9fb5ac" d="M 260.5,281.5 C 259.515,285.634 259.182,289.968 259.5,294.5C 261.735,294.795 263.735,294.461 265.5,293.5C 263.833,293.5 262.167,293.5 260.5,293.5C 260.5,289.5 260.5,285.5 260.5,281.5 Z"/></g>
<g><path style="opacity:1" fill="#d6dfdb" d="M 270.5,281.5 C 279.745,280.899 282.411,284.732 278.5,293C 270.246,296.081 266.746,293.248 268,284.5C 269.045,283.627 269.878,282.627 270.5,281.5 Z"/></g>
<g><path style="opacity:1" fill="#edf1f0" d="M 294.5,281.5 C 296.857,281.337 299.19,281.503 301.5,282C 299.866,282.494 298.199,282.66 296.5,282.5C 296.5,284.167 296.5,285.833 296.5,287.5C 301.833,287.833 301.833,288.167 296.5,288.5C 296.5,290.167 296.5,291.833 296.5,293.5C 298.199,293.34 299.866,293.506 301.5,294C 299.19,294.497 296.857,294.663 294.5,294.5C 294.5,290.167 294.5,285.833 294.5,281.5 Z"/></g>
<g><path style="opacity:1" fill="#edf1f0" d="M 304.5,281.5 C 306.857,281.337 309.19,281.503 311.5,282C 309.866,282.494 308.199,282.66 306.5,282.5C 306.5,284.167 306.5,285.833 306.5,287.5C 311.833,287.833 311.833,288.167 306.5,288.5C 306.5,290.167 306.5,291.833 306.5,293.5C 308.199,293.34 309.866,293.506 311.5,294C 309.19,294.497 306.857,294.663 304.5,294.5C 304.5,290.167 304.5,285.833 304.5,281.5 Z"/></g>
<g><path style="opacity:1" fill="#fefefe" d="M 397.5,287.5 C 396.081,288.451 394.415,288.784 392.5,288.5C 392.5,290.167 392.5,291.833 392.5,293.5C 394.199,293.34 395.866,293.506 397.5,294C 395.527,294.495 393.527,294.662 391.5,294.5C 391.5,290.167 391.5,285.833 391.5,281.5C 393.527,281.338 395.527,281.505 397.5,282C 395.866,282.494 394.199,282.66 392.5,282.5C 392.5,284.167 392.5,285.833 392.5,287.5C 394.167,287.5 395.833,287.5 397.5,287.5 Z"/></g>
<g><path style="opacity:1" fill="#547b6c" d="M 397.5,287.5 C 395.833,287.5 394.167,287.5 392.5,287.5C 392.5,285.833 392.5,284.167 392.5,282.5C 394.199,282.66 395.866,282.494 397.5,282C 395.527,281.505 393.527,281.338 391.5,281.5C 391.5,285.833 391.5,290.167 391.5,294.5C 390.514,290.03 390.181,285.363 390.5,280.5C 393.167,280.5 395.833,280.5 398.5,280.5C 398.5,281.5 398.5,282.5 398.5,283.5C 396.833,283.5 395.167,283.5 393.5,283.5C 393.5,284.5 393.5,285.5 393.5,286.5C 395.099,286.232 396.432,286.566 397.5,287.5 Z"/></g>
<g><path style="opacity:1" fill="#eaefed" d="M 221.5,281.5 C 223.857,281.337 226.19,281.503 228.5,282C 226.866,282.494 225.199,282.66 223.5,282.5C 223.5,284.167 223.5,285.833 223.5,287.5C 230.167,287.833 230.167,288.167 223.5,288.5C 223.5,290.167 223.5,291.833 223.5,293.5C 225.199,293.34 226.866,293.506 228.5,294C 226.19,294.497 223.857,294.663 221.5,294.5C 221.5,290.167 221.5,285.833 221.5,281.5 Z"/></g>
<g><path style="opacity:1" fill="#0b422c" d="M 272.5,282.5 C 278.039,283.239 279.705,286.239 277.5,291.5C 270.37,294.204 267.87,291.871 270,284.5C 270.995,283.934 271.828,283.267 272.5,282.5 Z"/></g>
<g><path style="opacity:1" fill="#d2ddd8" d="M 248.5,281.5 C 251.119,281.232 253.619,281.565 256,282.5C 257.328,287.338 255.494,289.671 250.5,289.5C 250.785,291.288 250.452,292.955 249.5,294.5C 248.508,290.217 248.174,285.884 248.5,281.5 Z"/></g>
<g><path style="opacity:1" fill="#0f452e" d="M 253.5,283.5 C 255.085,284.002 255.585,285.002 255,286.5C 253.644,287.38 252.144,287.714 250.5,287.5C 250.5,286.167 250.5,284.833 250.5,283.5C 251.5,283.5 252.5,283.5 253.5,283.5 Z"/></g>
<g><path style="opacity:1" fill="#65897b" d="M 253.5,283.5 C 252.5,283.5 251.5,283.5 250.5,283.5C 250.5,284.833 250.5,286.167 250.5,287.5C 249.549,286.081 249.216,284.415 249.5,282.5C 251.099,282.232 252.432,282.566 253.5,283.5 Z"/></g>
<g><path style="opacity:1" fill="#dde5e2" d="M 352.5,286.5 C 352.217,285.711 351.717,285.044 351,284.5C 350.502,287.817 350.335,291.15 350.5,294.5C 349.189,290.317 349.189,285.984 350.5,281.5C 353.144,284.109 355.311,287.109 357,290.5C 357.179,287.447 357.679,284.447 358.5,281.5C 359.833,285.833 359.833,290.167 358.5,294.5C 356.122,292.122 354.122,289.455 352.5,286.5 Z"/></g>
<g><path style="opacity:1" fill="#698c7f" d="M 352.5,286.5 C 351.833,289.167 351.167,291.833 350.5,294.5C 350.335,291.15 350.502,287.817 351,284.5C 351.717,285.044 352.217,285.711 352.5,286.5 Z"/></g>
<g><path style="opacity:1" fill="#e6ece9" d="M 282.5,281.5 C 284.686,282.823 286.186,284.823 287,287.5C 287.833,285.833 288.667,284.167 289.5,282.5C 290.167,281.167 290.833,281.167 291.5,282.5C 288.772,286.054 287.272,290.054 287,294.5C 286.667,292.5 286.333,290.5 286,288.5C 284.295,286.423 283.128,284.09 282.5,281.5 Z"/></g>
<g><path style="opacity:1" fill="#e0e7e4" d="M 339.5,281.5 C 340.675,281.281 341.675,281.614 342.5,282.5C 343.972,285.945 345.306,289.445 346.5,293C 346.167,293.5 345.833,294 345.5,294.5C 344.614,293.675 344.281,292.675 344.5,291.5C 341.092,290.828 338.425,291.828 336.5,294.5C 336.167,294.167 335.833,293.833 335.5,293.5C 337.043,289.539 338.376,285.539 339.5,281.5 Z"/></g>
<g><path style="opacity:1" fill="#2c5945" d="M 340.5,284.5 C 342.043,285.736 343.043,287.402 343.5,289.5C 341.833,290.833 340.167,290.833 338.5,289.5C 339.456,287.925 340.123,286.258 340.5,284.5 Z"/></g>
<g><path style="opacity:1" fill="#e1e8e5" d="M 366.5,281.5 C 367.5,281.5 368.5,281.5 369.5,281.5C 370.624,285.539 371.957,289.539 373.5,293.5C 373.167,293.833 372.833,294.167 372.5,294.5C 370.575,291.828 367.908,290.828 364.5,291.5C 364.719,292.675 364.386,293.675 363.5,294.5C 363.167,294 362.833,293.5 362.5,293C 363.987,289.199 365.32,285.365 366.5,281.5 Z"/></g>
<g><path style="opacity:1" fill="#295743" d="M 367.5,284.5 C 368.725,285.937 369.725,287.604 370.5,289.5C 368.833,290.833 367.167,290.833 365.5,289.5C 366.456,287.925 367.123,286.258 367.5,284.5 Z"/></g>
<g><path style="opacity:1" fill="#cdd9d4" d="M 378.5,281.5 C 380.857,281.337 383.19,281.503 385.5,282C 387.26,282.965 387.594,284.132 386.5,285.5C 384.279,282.366 381.613,281.866 378.5,284C 375.955,290.268 377.955,292.935 384.5,292C 385.357,291.311 386.023,290.478 386.5,289.5C 384.922,288.702 383.256,288.202 381.5,288C 383.81,287.503 386.143,287.337 388.5,287.5C 387.736,293.392 384.402,295.559 378.5,294C 374.547,289.835 374.547,285.669 378.5,281.5 Z"/></g>
<g><path style="opacity:1" fill="#d8e1dd" d="M 231.5,281.5 C 232.496,281.414 233.329,281.748 234,282.5C 235.247,285.329 236.747,287.995 238.5,290.5C 240.361,288.112 241.694,285.446 242.5,282.5C 243.325,281.614 244.325,281.281 245.5,281.5C 245.826,285.884 245.492,290.217 244.5,294.5C 243.679,291.553 243.179,288.553 243,285.5C 241.973,288.754 240.473,291.754 238.5,294.5C 236.747,291.995 235.247,289.329 234,286.5C 233.818,289.226 233.318,291.893 232.5,294.5C 231.508,290.217 231.174,285.884 231.5,281.5 Z"/></g>
<g><path style="opacity:1" fill="#d8e1dd" d="M 319.5,281.5 C 320.496,281.414 321.329,281.748 322,282.5C 323.247,285.329 324.747,287.995 326.5,290.5C 328.361,288.112 329.694,285.446 330.5,282.5C 331.325,281.614 332.325,281.281 333.5,281.5C 333.826,285.884 333.492,290.217 332.5,294.5C 331.679,291.553 331.179,288.553 331,285.5C 329.973,288.754 328.473,291.754 326.5,294.5C 324.747,291.995 323.247,289.329 322,286.5C 321.818,289.226 321.318,291.893 320.5,294.5C 319.508,290.217 319.174,285.884 319.5,281.5 Z"/></g>
<g><path style="opacity:1" fill="#d0dbd7" d="M 400.5,281.5 C 408.773,279.95 411.107,282.784 407.5,290C 407.95,291.285 408.617,292.452 409.5,293.5C 409.167,293.833 408.833,294.167 408.5,294.5C 407.026,293.564 406.026,292.23 405.5,290.5C 404.675,289.614 403.675,289.281 402.5,289.5C 402.785,291.288 402.452,292.955 401.5,294.5C 400.508,290.217 400.174,285.884 400.5,281.5 Z"/></g>
<g><path style="opacity:1" fill="#134832" d="M 402.5,282.5 C 406.5,281.833 408.167,283.5 407.5,287.5C 405.833,287.5 404.167,287.5 402.5,287.5C 402.5,285.833 402.5,284.167 402.5,282.5 Z"/></g>
<g><path style="opacity:1" fill="#184e3a" d="M 219.5,306.5 C 285.331,307.499 351.331,307.832 417.5,307.5C 351.332,308.832 284.999,308.832 218.5,307.5C 218.624,306.893 218.957,306.56 219.5,306.5 Z"/></g>
</svg>
