<?xml version="1.0" encoding="UTF-8"?>
<!DOCTYPE svg PUBLIC "-//W3C//DTD SVG 1.1//EN" "http://www.w3.org/Graphics/SVG/1.1/DTD/svg11.dtd">
<svg xmlns="http://www.w3.org/2000/svg" version="1.1" width="512px" height="444px" style="shape-rendering:geometricPrecision; text-rendering:geometricPrecision; image-rendering:optimizeQuality; fill-rule:evenodd; clip-rule:evenodd" xmlns:xlink="http://www.w3.org/1999/xlink">
<g><path style="opacity:0.989" fill="#ff725d" d="M 31.5,-0.5 C 180.833,-0.5 330.167,-0.5 479.5,-0.5C 498.296,2.62908 508.963,13.6291 511.5,32.5C 511.5,158.833 511.5,285.167 511.5,411.5C 508.5,429.833 497.833,440.5 479.5,443.5C 330.167,443.5 180.833,443.5 31.5,443.5C 13.1667,440.5 2.5,429.833 -0.5,411.5C -0.5,285.167 -0.5,158.833 -0.5,32.5C 2.03744,13.6291 12.7041,2.62908 31.5,-0.5 Z"/></g>
<g><path style="opacity:1" fill="#ff9b8e" d="M 338.5,80.5 C 345.07,79.1074 351.737,79.274 358.5,81C 351.879,80.6711 345.212,80.5044 338.5,80.5 Z"/></g>
<g><path style="opacity:1" fill="#ff9e90" d="M 338.5,80.5 C 334.028,82.2846 329.362,83.4512 324.5,84C 328.936,81.8909 333.603,80.7243 338.5,80.5 Z"/></g>
<g><path style="opacity:1" fill="#d5d2d2" d="M 323.5,169.5 C 323.5,169.833 323.5,170.167 323.5,170.5C 323.185,184.246 323.519,197.912 324.5,211.5C 323.596,212.209 323.263,213.209 323.5,214.5C 316.5,214.5 309.5,214.5 302.5,214.5C 301.902,198.694 301.902,183.027 302.5,167.5C 298.958,167.813 295.625,167.479 292.5,166.5C 295.833,166.5 299.167,166.5 302.5,166.5C 305.484,146.61 299.484,130.11 284.5,117C 282.182,115.007 279.516,113.841 276.5,113.5C 255.154,103.201 236.32,106.867 220,124.5C 219.833,125 219.667,125.5 219.5,126C 220.544,127.174 221.544,128.341 222.5,129.5C 220.83,129.249 219.33,128.582 218,127.5C 210.112,139.285 207.279,152.285 209.5,166.5C 211.167,166.5 212.833,166.5 214.5,166.5C 214.5,166.833 214.5,167.167 214.5,167.5C 212.833,167.5 211.167,167.5 209.5,167.5C 209.334,171.846 209.501,176.179 210,180.5C 211.039,179.29 212.206,178.29 213.5,177.5C 212.969,179.544 211.802,181.211 210,182.5C 209.5,193.161 209.333,203.828 209.5,214.5C 201.585,214.587 193.918,214.587 186.5,214.5C 186.461,213.244 186.961,212.244 188,211.5C 188.5,197.837 188.667,184.171 188.5,170.5C 187.5,170.5 186.5,170.5 185.5,170.5C 185.5,170.167 185.5,169.833 185.5,169.5C 186.5,169.5 187.5,169.5 188.5,169.5C 186.519,151.538 189.853,134.704 198.5,119C 197.314,117.588 195.981,116.421 194.5,115.5C 196.512,116.014 198.512,116.18 200.5,116C 221.765,88.9307 248.765,80.9307 281.5,92C 312.928,106.932 326.928,132.765 323.5,169.5 Z"/></g>
<g><path style="opacity:1" fill="#ffa699" d="M 314.5,87.5 C 315.552,87.3505 316.552,87.5172 317.5,88C 314.942,89.6263 312.275,90.6263 309.5,91C 311.233,89.8111 312.9,88.6444 314.5,87.5 Z"/></g>
<g><path style="opacity:1" fill="#fffaf9" d="M 432.5,94.5 C 439.827,93.3293 442.994,96.3293 442,103.5C 438.61,107.032 434.943,107.366 431,104.5C 428.729,100.697 429.229,97.3632 432.5,94.5 Z"/></g>
<g><path style="opacity:1" fill="#ff725d" d="M 184.5,111.5 C 187.53,113.403 190.863,114.737 194.5,115.5C 195.981,116.421 197.314,117.588 198.5,119C 189.853,134.704 186.519,151.538 188.5,169.5C 187.5,169.5 186.5,169.5 185.5,169.5C 167.948,172.245 150.781,176.578 134,182.5C 133.228,182.355 132.561,182.022 132,181.5C 129.392,175.947 126.559,170.613 123.5,165.5C 123.598,163.447 122.931,161.78 121.5,160.5C 120.596,159.791 120.263,158.791 120.5,157.5C 116.754,145.724 115.754,133.724 117.5,121.5C 119.008,119.819 120.008,117.819 120.5,115.5C 122.833,113.833 124.833,111.833 126.5,109.5C 137.705,104.318 149.371,103.152 161.5,106C 169.257,107.532 176.923,109.365 184.5,111.5 Z"/></g>
<g><path style="opacity:1" fill="#ffcac2" d="M 184.5,111.5 C 176.923,109.365 169.257,107.532 161.5,106C 149.371,103.152 137.705,104.318 126.5,109.5C 128.649,107.254 131.316,105.754 134.5,105C 151.955,101.857 168.621,104.024 184.5,111.5 Z"/></g>
<g><path style="opacity:1" fill="#ff735e" d="M 276.5,113.5 C 273.911,114.419 271.911,116.086 270.5,118.5C 267.573,119.757 265.239,121.757 263.5,124.5C 256.89,129.441 250.89,135.108 245.5,141.5C 243.784,141.371 242.117,141.038 240.5,140.5C 240.027,139.094 239.027,138.427 237.5,138.5C 236.341,136.75 234.674,135.75 232.5,135.5C 232.027,134.094 231.027,133.427 229.5,133.5C 227.664,131.412 225.331,130.079 222.5,129.5C 221.544,128.341 220.544,127.174 219.5,126C 219.667,125.5 219.833,125 220,124.5C 236.32,106.867 255.154,103.201 276.5,113.5 Z"/></g>
<g><path style="opacity:1" fill="#ffcac3" d="M 126.5,109.5 C 124.833,111.833 122.833,113.833 120.5,115.5C 121.5,112.5 123.5,110.5 126.5,109.5 Z"/></g>
<g><path style="opacity:1" fill="#ffc6bd" d="M 184.5,111.5 C 188.297,111.872 191.63,113.206 194.5,115.5C 190.863,114.737 187.53,113.403 184.5,111.5 Z"/></g>
<g><path style="opacity:1" fill="#ff725d" d="M 276.5,113.5 C 279.516,113.841 282.182,115.007 284.5,117C 299.484,130.11 305.484,146.61 302.5,166.5C 299.167,166.5 295.833,166.5 292.5,166.5C 285.879,165.938 279.212,164.938 272.5,163.5C 271.415,161.413 269.749,160.08 267.5,159.5C 266.738,157.738 265.404,156.738 263.5,156.5C 262.738,154.738 261.404,153.738 259.5,153.5C 259.027,152.094 258.027,151.427 256.5,151.5C 255.738,149.738 254.404,148.738 252.5,148.5C 252.027,147.094 251.027,146.427 249.5,146.5C 249.027,145.094 248.027,144.427 246.5,144.5C 245.89,143.609 245.557,142.609 245.5,141.5C 252.11,136.559 258.11,130.892 263.5,124.5C 266.427,123.243 268.761,121.243 270.5,118.5C 273.089,117.581 275.089,115.914 276.5,113.5 Z"/></g>
<g><path style="opacity:1" fill="#ffcdc5" d="M 120.5,115.5 C 120.008,117.819 119.008,119.819 117.5,121.5C 117.461,118.911 118.461,116.911 120.5,115.5 Z"/></g>
<g><path style="opacity:1" fill="#ffa698" d="M 276.5,113.5 C 275.089,115.914 273.089,117.581 270.5,118.5C 271.911,116.086 273.911,114.419 276.5,113.5 Z"/></g>
<g><path style="opacity:1" fill="#ffa799" d="M 270.5,118.5 C 268.761,121.243 266.427,123.243 263.5,124.5C 265.239,121.757 267.573,119.757 270.5,118.5 Z"/></g>
<g><path style="opacity:1" fill="#ffa89b" d="M 375.5,107.5 C 376.997,118.176 376.164,128.843 373,139.5C 374.486,128.929 375.319,118.262 375.5,107.5 Z"/></g>
<g><path style="opacity:1" fill="#ff735e" d="M 222.5,129.5 C 224.336,131.588 226.669,132.921 229.5,133.5C 229.973,134.906 230.973,135.573 232.5,135.5C 233.659,137.25 235.326,138.25 237.5,138.5C 237.973,139.906 238.973,140.573 240.5,140.5C 241.504,141.683 242.338,143.016 243,144.5C 243.986,143.829 245.153,143.829 246.5,144.5C 246.973,145.906 247.973,146.573 249.5,146.5C 249.973,147.906 250.973,148.573 252.5,148.5C 253.262,150.262 254.596,151.262 256.5,151.5C 256.973,152.906 257.973,153.573 259.5,153.5C 260.262,155.262 261.596,156.262 263.5,156.5C 264.262,158.262 265.596,159.262 267.5,159.5C 268.585,161.587 270.251,162.92 272.5,163.5C 256.651,164.444 240.651,164.944 224.5,165C 226.638,163.578 227.805,161.745 228,159.5C 226.167,161.333 224.333,163.167 222.5,165C 219.793,165.395 217.127,165.895 214.5,166.5C 212.833,166.5 211.167,166.5 209.5,166.5C 207.279,152.285 210.112,139.285 218,127.5C 219.33,128.582 220.83,129.249 222.5,129.5 Z"/></g>
<g><path style="opacity:1" fill="#ffc4bc" d="M 222.5,129.5 C 225.331,130.079 227.664,131.412 229.5,133.5C 226.669,132.921 224.336,131.588 222.5,129.5 Z"/></g>
<g><path style="opacity:1" fill="#ffc9c2" d="M 229.5,133.5 C 231.027,133.427 232.027,134.094 232.5,135.5C 230.973,135.573 229.973,134.906 229.5,133.5 Z"/></g>
<g><path style="opacity:1" fill="#ffc9c1" d="M 232.5,135.5 C 234.674,135.75 236.341,136.75 237.5,138.5C 235.326,138.25 233.659,137.25 232.5,135.5 Z"/></g>
<g><path style="opacity:1" fill="#ffc9c1" d="M 237.5,138.5 C 239.027,138.427 240.027,139.094 240.5,140.5C 238.973,140.573 237.973,139.906 237.5,138.5 Z"/></g>
<g><path style="opacity:1" fill="#ff9e8e" d="M 263.5,124.5 C 258.11,130.892 252.11,136.559 245.5,141.5C 250.89,135.108 256.89,129.441 263.5,124.5 Z"/></g>
<g><path style="opacity:1" fill="#fff1ef" d="M 152.5,139.5 C 153.5,139.5 154.5,139.5 155.5,139.5C 154.754,143.31 153.754,143.31 152.5,139.5 Z"/></g>
<g><path style="opacity:1" fill="#ffcbc3" d="M 240.5,140.5 C 242.117,141.038 243.784,141.371 245.5,141.5C 245.557,142.609 245.89,143.609 246.5,144.5C 245.153,143.829 243.986,143.829 243,144.5C 242.338,143.016 241.504,141.683 240.5,140.5 Z"/></g>
<g><path style="opacity:1" fill="#ffc8c1" d="M 246.5,144.5 C 248.027,144.427 249.027,145.094 249.5,146.5C 247.973,146.573 246.973,145.906 246.5,144.5 Z"/></g>
<g><path style="opacity:1" fill="#ffcbc4" d="M 117.5,121.5 C 115.754,133.724 116.754,145.724 120.5,157.5C 117.938,152.939 116.438,147.939 116,142.5C 115.333,136.5 115.333,130.5 116,124.5C 116.232,123.263 116.732,122.263 117.5,121.5 Z"/></g>
<g><path style="opacity:1" fill="#ffc6be" d="M 249.5,146.5 C 251.027,146.427 252.027,147.094 252.5,148.5C 250.973,148.573 249.973,147.906 249.5,146.5 Z"/></g>
<g><path style="opacity:1" fill="#ffaa9e" d="M 370.5,143.5 C 371.559,145.726 371.392,148.059 370,150.5C 369.666,148.153 369.833,145.819 370.5,143.5 Z"/></g>
<g><path style="opacity:1" fill="#ffc6be" d="M 252.5,148.5 C 254.404,148.738 255.738,149.738 256.5,151.5C 254.596,151.262 253.262,150.262 252.5,148.5 Z"/></g>
<g><path style="opacity:1" fill="#fff0ee" d="M 429.5,150.5 C 430.5,150.5 431.5,150.5 432.5,150.5C 432.5,151.5 432.5,152.5 432.5,153.5C 431.5,153.5 430.5,153.5 429.5,153.5C 429.5,152.5 429.5,151.5 429.5,150.5 Z"/></g>
<g><path style="opacity:1" fill="#ffc6be" d="M 256.5,151.5 C 258.027,151.427 259.027,152.094 259.5,153.5C 257.973,153.573 256.973,152.906 256.5,151.5 Z"/></g>
<g><path style="opacity:1" fill="#ffb7ac" d="M 237.5,148.5 C 238.525,148.897 238.692,149.563 238,150.5C 235.667,152.833 233.333,155.167 231,157.5C 230.333,156.833 230.333,156.167 231,155.5C 233.372,153.297 235.539,150.963 237.5,148.5 Z"/></g>
<g><path style="opacity:1" fill="#ffc2b9" d="M 259.5,153.5 C 261.404,153.738 262.738,154.738 263.5,156.5C 261.596,156.262 260.262,155.262 259.5,153.5 Z"/></g>
<g><path style="opacity:1" fill="#ffc2b9" d="M 263.5,156.5 C 265.404,156.738 266.738,157.738 267.5,159.5C 265.596,159.262 264.262,158.262 263.5,156.5 Z"/></g>
<g><path style="opacity:1" fill="#ffbfb5" d="M 267.5,159.5 C 269.749,160.08 271.415,161.413 272.5,163.5C 270.251,162.92 268.585,161.587 267.5,159.5 Z"/></g>
<g><path style="opacity:1" fill="#ffaea2" d="M 363.5,167.5 C 363.826,164.689 364.659,162.022 366,159.5C 366.264,162.539 365.431,165.206 363.5,167.5 Z"/></g>
<g><path style="opacity:1" fill="#ffc8c0" d="M 121.5,160.5 C 122.931,161.78 123.598,163.447 123.5,165.5C 122.069,164.22 121.402,162.553 121.5,160.5 Z"/></g>
<g><path style="opacity:1" fill="#ff725d" d="M 277.5,167.5 C 282.305,166.513 287.305,166.179 292.5,166.5C 295.625,167.479 298.958,167.813 302.5,167.5C 301.902,183.027 301.902,198.694 302.5,214.5C 271.5,214.5 240.5,214.5 209.5,214.5C 209.333,203.828 209.5,193.161 210,182.5C 211.802,181.211 212.969,179.544 213.5,177.5C 215.587,176.415 216.92,174.749 217.5,172.5C 219.67,171.162 221.336,169.328 222.5,167C 239.813,165.579 257.146,165.246 274.5,166C 275.244,167.039 276.244,167.539 277.5,167.5 Z"/></g>
<g><path style="opacity:1" fill="#ffc4bc" d="M 272.5,163.5 C 279.212,164.938 285.879,165.938 292.5,166.5C 287.305,166.179 282.305,166.513 277.5,167.5C 276.244,167.539 275.244,167.039 274.5,166C 257.146,165.246 239.813,165.579 222.5,167C 221.336,169.328 219.67,171.162 217.5,172.5C 217.859,170.629 218.859,169.129 220.5,168C 218.527,167.505 216.527,167.338 214.5,167.5C 214.5,167.167 214.5,166.833 214.5,166.5C 217.127,165.895 219.793,165.395 222.5,165C 224.333,163.167 226.167,161.333 228,159.5C 227.805,161.745 226.638,163.578 224.5,165C 240.651,164.944 256.651,164.444 272.5,163.5 Z"/></g>
<g><path style="opacity:1" fill="#ff735e" d="M 214.5,167.5 C 216.527,167.338 218.527,167.505 220.5,168C 218.859,169.129 217.859,170.629 217.5,172.5C 215.413,173.585 214.08,175.251 213.5,177.5C 212.206,178.29 211.039,179.29 210,180.5C 209.501,176.179 209.334,171.846 209.5,167.5C 211.167,167.5 212.833,167.5 214.5,167.5 Z"/></g>
<g><path style="opacity:1" fill="#ffbfb6" d="M 277.5,167.5 C 280.089,168.419 282.089,170.086 283.5,172.5C 280.911,171.581 278.911,169.914 277.5,167.5 Z"/></g>
<g><path style="opacity:1" fill="#ffaea1" d="M 363.5,167.5 C 363.293,170.241 362.293,172.574 360.5,174.5C 360.707,171.759 361.707,169.426 363.5,167.5 Z"/></g>
<g><path style="opacity:1" fill="#ff725d" d="M 185.5,170.5 C 186.5,170.5 187.5,170.5 188.5,170.5C 188.667,184.171 188.5,197.837 188,211.5C 186.961,212.244 186.461,213.244 186.5,214.5C 181.489,214.334 176.489,214.501 171.5,215C 166.296,217.936 164.13,222.436 165,228.5C 164.292,227.619 163.458,226.953 162.5,226.5C 161.92,224.251 160.587,222.585 158.5,221.5C 157.92,219.251 156.587,217.585 154.5,216.5C 154.262,214.596 153.262,213.262 151.5,212.5C 151.262,210.596 150.262,209.262 148.5,208.5C 148.573,206.973 147.906,205.973 146.5,205.5C 144.327,201.148 141.66,197.148 138.5,193.5C 138.573,191.973 137.906,190.973 136.5,190.5C 136.25,188.326 135.25,186.659 133.5,185.5C 133.47,184.503 133.97,183.836 135,183.5C 151.656,177.962 168.49,173.629 185.5,170.5 Z"/></g>
<g><path style="opacity:1" fill="#ffc4bb" d="M 123.5,165.5 C 126.559,170.613 129.392,175.947 132,181.5C 132.561,182.022 133.228,182.355 134,182.5C 150.781,176.578 167.948,172.245 185.5,169.5C 185.5,169.833 185.5,170.167 185.5,170.5C 168.49,173.629 151.656,177.962 135,183.5C 133.97,183.836 133.47,184.503 133.5,185.5C 131.612,184.725 129.612,184.725 127.5,185.5C 128.6,184.442 129.934,183.608 131.5,183C 128.139,177.448 125.473,171.614 123.5,165.5 Z"/></g>
<g><path style="opacity:1" fill="#ffb6ab" d="M 323.5,170.5 C 323.5,170.167 323.5,169.833 323.5,169.5C 332.783,170.754 341.783,172.754 350.5,175.5C 341.399,174.213 332.399,172.546 323.5,170.5 Z"/></g>
<g><path style="opacity:1" fill="#ffbdb3" d="M 283.5,172.5 C 286.427,173.757 288.761,175.757 290.5,178.5C 287.573,177.243 285.239,175.243 283.5,172.5 Z"/></g>
<g><path style="opacity:1" fill="#ffbcb2" d="M 217.5,172.5 C 216.92,174.749 215.587,176.415 213.5,177.5C 214.08,175.251 215.413,173.585 217.5,172.5 Z"/></g>
<g><path style="opacity:1" fill="#ffb5aa" d="M 360.5,174.5 C 360.281,175.675 360.614,176.675 361.5,177.5C 363.026,177.994 364.359,178.661 365.5,179.5C 360.983,177.175 358.15,178.508 357,183.5C 356.82,181.512 356.986,179.512 357.5,177.5C 356.209,177.737 355.209,177.404 354.5,176.5C 356.886,176.741 358.886,176.075 360.5,174.5 Z"/></g>
<g><path style="opacity:1" fill="#ff735e" d="M 323.5,170.5 C 332.399,172.546 341.399,174.213 350.5,175.5C 352.099,175.232 353.432,175.566 354.5,176.5C 355.209,177.404 356.209,177.737 357.5,177.5C 356.986,179.512 356.82,181.512 357,183.5C 358.15,178.508 360.983,177.175 365.5,179.5C 374.779,181.478 383.446,184.811 391.5,189.5C 393.181,191.008 395.181,192.008 397.5,192.5C 410.673,197.84 420.507,206.84 427,219.5C 429,225.167 429,230.833 427,236.5C 422.225,247.608 414.391,255.775 403.5,261C 398.932,263.452 394.265,265.618 389.5,267.5C 386.759,267.707 384.426,268.707 382.5,270.5C 379.458,270.733 376.792,271.733 374.5,273.5C 372.61,273.703 371.11,273.037 370,271.5C 369.383,272.449 369.549,273.282 370.5,274C 367.282,274.9 364.282,276.067 361.5,277.5C 356.468,278.341 351.468,279.341 346.5,280.5C 346.171,266.323 346.504,252.323 347.5,238.5C 346.709,232.581 346.209,226.581 346,220.5C 344.924,217.921 343.091,216.254 340.5,215.5C 340.631,214.761 340.464,214.094 340,213.5C 334.393,215.329 329.226,214.663 324.5,211.5C 323.519,197.912 323.185,184.246 323.5,170.5 Z"/></g>
<g><path style="opacity:1" fill="#ffbcb2" d="M 290.5,178.5 C 293.899,180.388 296.899,182.888 299.5,186C 295.857,184.545 292.857,182.045 290.5,178.5 Z"/></g>
<g><path style="opacity:1" fill="#ff725d" d="M 133.5,185.5 C 133.75,187.674 134.75,189.341 136.5,190.5C 136.427,192.027 137.094,193.027 138.5,193.5C 140.178,198.197 142.844,202.197 146.5,205.5C 146.427,207.027 147.094,208.027 148.5,208.5C 148.738,210.404 149.738,211.738 151.5,212.5C 151.738,214.404 152.738,215.738 154.5,216.5C 155.08,218.749 156.413,220.415 158.5,221.5C 159.08,223.749 160.413,225.415 162.5,226.5C 162.685,228.196 163.519,229.529 165,230.5C 165.763,237.882 165.597,245.216 164.5,252.5C 162.043,255.751 160.376,259.418 159.5,263.5C 158.662,263.842 158.328,264.508 158.5,265.5C 156.707,267.426 155.707,269.759 155.5,272.5C 154.069,273.78 153.402,275.447 153.5,277.5C 145.727,275.909 138.061,273.909 130.5,271.5C 129.22,270.069 127.553,269.402 125.5,269.5C 123.574,267.707 121.241,266.707 118.5,266.5C 116.181,266.008 114.181,265.008 112.5,263.5C 111.341,261.75 109.674,260.75 107.5,260.5C 106.508,260.672 105.842,260.338 105.5,259.5C 105.027,258.094 104.027,257.427 102.5,257.5C 101.738,255.738 100.404,254.738 98.5,254.5C 95.5,250.833 92.1667,247.5 88.5,244.5C 81.8333,233.5 81.8333,222.5 88.5,211.5C 92.1667,208.5 95.5,205.167 98.5,201.5C 100.404,201.262 101.738,200.262 102.5,198.5C 104.027,198.573 105.027,197.906 105.5,196.5C 107.674,196.25 109.341,195.25 110.5,193.5C 110.842,192.662 111.508,192.328 112.5,192.5C 114.819,192.008 116.819,191.008 118.5,189.5C 118.842,188.662 119.508,188.328 120.5,188.5C 123.241,188.293 125.574,187.293 127.5,185.5C 129.612,184.725 131.612,184.725 133.5,185.5 Z"/></g>
<g><path style="opacity:1" fill="#ffc8c0" d="M 133.5,185.5 C 135.25,186.659 136.25,188.326 136.5,190.5C 134.75,189.341 133.75,187.674 133.5,185.5 Z"/></g>
<g><path style="opacity:1" fill="#ffc3ba" d="M 127.5,185.5 C 125.574,187.293 123.241,188.293 120.5,188.5C 122.426,186.707 124.759,185.707 127.5,185.5 Z"/></g>
<g><path style="opacity:1" fill="#ffcbc3" d="M 118.5,189.5 C 116.819,191.008 114.819,192.008 112.5,192.5C 113.911,190.461 115.911,189.461 118.5,189.5 Z"/></g>
<g><path style="opacity:1" fill="#ffa699" d="M 391.5,189.5 C 394.089,189.461 396.089,190.461 397.5,192.5C 395.181,192.008 393.181,191.008 391.5,189.5 Z"/></g>
<g><path style="opacity:1" fill="#ffcbc3" d="M 136.5,190.5 C 137.906,190.973 138.573,191.973 138.5,193.5C 137.094,193.027 136.427,192.027 136.5,190.5 Z"/></g>
<g><path style="opacity:1" fill="#ffccc5" d="M 110.5,193.5 C 109.341,195.25 107.674,196.25 105.5,196.5C 106.659,194.75 108.326,193.75 110.5,193.5 Z"/></g>
<g><path style="opacity:1" fill="#ffc6be" d="M 138.5,193.5 C 141.66,197.148 144.327,201.148 146.5,205.5C 142.844,202.197 140.178,198.197 138.5,193.5 Z"/></g>
<g><path style="opacity:1" fill="#ffcbc4" d="M 105.5,196.5 C 105.027,197.906 104.027,198.573 102.5,198.5C 102.973,197.094 103.973,196.427 105.5,196.5 Z"/></g>
<g><path style="opacity:1" fill="#ffc7bf" d="M 102.5,198.5 C 101.738,200.262 100.404,201.262 98.5,201.5C 99.2623,199.738 100.596,198.738 102.5,198.5 Z"/></g>
<g><path style="opacity:1" fill="#ffb4a9" d="M 347.5,199.5 C 347.973,201.97 347.139,204.304 345,206.5C 345.22,204.037 346.054,201.704 347.5,199.5 Z"/></g>
<g><path style="opacity:1" fill="#ffbfb6" d="M 98.5,201.5 C 95.5,205.167 92.1667,208.5 88.5,211.5C 90.8333,207.167 94.1667,203.833 98.5,201.5 Z"/></g>
<g><path style="opacity:1" fill="#ffc8c1" d="M 146.5,205.5 C 147.906,205.973 148.573,206.973 148.5,208.5C 147.094,208.027 146.427,207.027 146.5,205.5 Z"/></g>
<g><path style="opacity:1" fill="#ffbbb1" d="M 342.5,208.5 C 343.713,209.497 343.546,210.497 342,211.5C 341.53,210.423 341.697,209.423 342.5,208.5 Z"/></g>
<g><path style="opacity:1" fill="#ffc7be" d="M 148.5,208.5 C 150.262,209.262 151.262,210.596 151.5,212.5C 149.738,211.738 148.738,210.404 148.5,208.5 Z"/></g>
<g><path style="opacity:1" fill="#ffc6be" d="M 151.5,212.5 C 153.262,213.262 154.262,214.596 154.5,216.5C 152.738,215.738 151.738,214.404 151.5,212.5 Z"/></g>
<g><path style="opacity:1" fill="#ffb7ad" d="M 324.5,211.5 C 329.226,214.663 334.393,215.329 340,213.5C 340.464,214.094 340.631,214.761 340.5,215.5C 334.642,215.822 328.975,215.489 323.5,214.5C 323.263,213.209 323.596,212.209 324.5,211.5 Z"/></g>
<g><path style="opacity:1" fill="#fefefe" d="M 186.5,214.5 C 193.918,214.587 201.585,214.587 209.5,214.5C 240.5,214.5 271.5,214.5 302.5,214.5C 309.5,214.5 316.5,214.5 323.5,214.5C 328.975,215.489 334.642,215.822 340.5,215.5C 343.091,216.254 344.924,217.921 346,220.5C 346.209,226.581 346.709,232.581 347.5,238.5C 346.504,252.323 346.171,266.323 346.5,280.5C 346.5,280.833 346.5,281.167 346.5,281.5C 346.667,296.17 346.5,310.837 346,325.5C 344.841,328.493 342.675,330.16 339.5,330.5C 322.658,330.17 305.992,330.503 289.5,331.5C 272.706,330.189 256.039,330.189 239.5,331.5C 217.242,330.511 194.908,330.178 172.5,330.5C 169.358,330.201 167.191,328.534 166,325.5C 165.5,311.171 165.333,296.837 165.5,282.5C 165.5,281.833 165.5,281.167 165.5,280.5C 165.5,271.5 165.5,262.5 165.5,253.5C 165.5,252.833 165.167,252.5 164.5,252.5C 165.597,245.216 165.763,237.882 165,230.5C 163.519,229.529 162.685,228.196 162.5,226.5C 163.458,226.953 164.292,227.619 165,228.5C 164.13,222.436 166.296,217.936 171.5,215C 176.489,214.501 181.489,214.334 186.5,214.5 Z"/></g>
<g><path style="opacity:1" fill="#ffc4bb" d="M 154.5,216.5 C 156.587,217.585 157.92,219.251 158.5,221.5C 156.413,220.415 155.08,218.749 154.5,216.5 Z"/></g>
<g><path style="opacity:1" fill="#ffc4bb" d="M 158.5,221.5 C 160.587,222.585 161.92,224.251 162.5,226.5C 160.413,225.415 159.08,223.749 158.5,221.5 Z"/></g>
<g><path style="opacity:1" fill="#ffeeeb" d="M 407.5,226.5 C 408.5,226.5 409.5,226.5 410.5,226.5C 410.5,227.5 410.5,228.5 410.5,229.5C 409.5,229.5 408.5,229.5 407.5,229.5C 407.5,228.5 407.5,227.5 407.5,226.5 Z"/></g>
<g><path style="opacity:1" fill="#ffbeb4" d="M 88.5,211.5 C 81.8333,222.5 81.8333,233.5 88.5,244.5C 81.432,236.533 79.932,227.533 84,217.5C 84.7918,214.894 86.2918,212.894 88.5,211.5 Z"/></g>
<g><path style="opacity:1" fill="#ffb4aa" d="M 347.5,238.5 C 349.262,239.262 350.262,240.596 350.5,242.5C 348.738,241.738 347.738,240.404 347.5,238.5 Z"/></g>
<g><path style="opacity:1" fill="#d4d4d4" d="M 251.5,242.5 C 264.807,241.975 271.307,248.308 271,261.5C 269.438,267.028 265.938,270.362 260.5,271.5C 260.5,279.167 260.5,286.833 260.5,294.5C 257.5,294.5 254.5,294.5 251.5,294.5C 251.666,287.159 251.5,279.826 251,272.5C 240.474,266.803 238.141,258.803 244,248.5C 246.114,245.879 248.614,243.879 251.5,242.5 Z"/></g>
<g><path style="opacity:1" fill="#ffb4a9" d="M 350.5,242.5 C 352.085,243.002 352.585,244.002 352,245.5C 350.961,244.756 350.461,243.756 350.5,242.5 Z"/></g>
<g><path style="opacity:1" fill="#ffc7bf" d="M 88.5,244.5 C 92.1667,247.5 95.5,250.833 98.5,254.5C 94.1667,252.167 90.8333,248.833 88.5,244.5 Z"/></g>
<g><path style="opacity:1" fill="#dcdcdc" d="M 248.5,238.5 C 249.873,238.343 251.207,238.51 252.5,239C 236.495,245.512 231.995,256.679 239,272.5C 236.894,270.623 235.561,268.29 235,265.5C 233.117,253.239 237.617,244.239 248.5,238.5 Z"/></g>
<g><path style="opacity:1" fill="#ffb6ac" d="M 355.5,249.5 C 357.085,250.002 357.585,251.002 357,252.5C 355.961,251.756 355.461,250.756 355.5,249.5 Z"/></g>
<g><path style="opacity:1" fill="#ff745f" d="M 165.5,253.5 C 165.5,262.5 165.5,271.5 165.5,280.5C 161.2,280.245 157.2,279.245 153.5,277.5C 154.931,276.22 155.598,274.553 155.5,272.5C 157.293,270.574 158.293,268.241 158.5,265.5C 158.328,264.508 158.662,263.842 159.5,263.5C 161.5,260.167 163.5,256.833 165.5,253.5 Z"/></g>
<g><path style="opacity:1" fill="#ffcac2" d="M 98.5,254.5 C 100.404,254.738 101.738,255.738 102.5,257.5C 100.596,257.262 99.2623,256.262 98.5,254.5 Z"/></g>
<g><path style="opacity:1" fill="#ffc2ba" d="M 164.5,252.5 C 165.167,252.5 165.5,252.833 165.5,253.5C 163.5,256.833 161.5,260.167 159.5,263.5C 160.376,259.418 162.043,255.751 164.5,252.5 Z"/></g>
<g><path style="opacity:1" fill="#ffcdc6" d="M 102.5,257.5 C 104.027,257.427 105.027,258.094 105.5,259.5C 103.973,259.573 102.973,258.906 102.5,257.5 Z"/></g>
<g><path style="opacity:1" fill="#e4e4e4" d="M 174.5,233.5 C 175.268,234.263 175.768,235.263 176,236.5C 176.928,264.195 176.595,291.861 175,319.5C 174.5,290.835 174.333,262.169 174.5,233.5 Z"/></g>
<g><path style="opacity:1" fill="#ffcac2" d="M 107.5,260.5 C 109.674,260.75 111.341,261.75 112.5,263.5C 110.326,263.25 108.659,262.25 107.5,260.5 Z"/></g>
<g><path style="opacity:1" fill="#ffc9c1" d="M 118.5,266.5 C 121.241,266.707 123.574,267.707 125.5,269.5C 122.759,269.293 120.426,268.293 118.5,266.5 Z"/></g>
<g><path style="opacity:1" fill="#ffc5bc" d="M 158.5,265.5 C 158.293,268.241 157.293,270.574 155.5,272.5C 155.707,269.759 156.707,267.426 158.5,265.5 Z"/></g>
<g><path style="opacity:1" fill="#ffa597" d="M 389.5,267.5 C 387.574,269.293 385.241,270.293 382.5,270.5C 384.426,268.707 386.759,267.707 389.5,267.5 Z"/></g>
<g><path style="opacity:1" fill="#ffc7bf" d="M 125.5,269.5 C 127.553,269.402 129.22,270.069 130.5,271.5C 128.447,271.598 126.78,270.931 125.5,269.5 Z"/></g>
<g><path style="opacity:1" fill="#ffa79b" d="M 382.5,270.5 C 380.208,272.267 377.542,273.267 374.5,273.5C 376.792,271.733 379.458,270.733 382.5,270.5 Z"/></g>
<g><path style="opacity:1" fill="#ffc6be" d="M 155.5,272.5 C 155.598,274.553 154.931,276.22 153.5,277.5C 153.402,275.447 154.069,273.78 155.5,272.5 Z"/></g>
<g><path style="opacity:1" fill="#ff745f" d="M 372.5,276.5 C 374.341,278.849 375.674,281.515 376.5,284.5C 376.707,287.241 377.707,289.574 379.5,291.5C 381.601,294.797 382.935,298.463 383.5,302.5C 384.057,307.052 385.057,311.385 386.5,315.5C 388.83,326.336 386.496,336.169 379.5,345C 368.979,352.005 357.646,354.172 345.5,351.5C 339.698,349.804 333.698,348.47 327.5,347.5C 314.755,344.122 302.755,339.122 291.5,332.5C 307.5,331.833 323.5,331.167 339.5,330.5C 342.675,330.16 344.841,328.493 346,325.5C 346.5,310.837 346.667,296.17 346.5,281.5C 351.809,280.924 356.809,279.591 361.5,277.5C 364.443,277.353 367.276,276.687 370,275.5C 370.902,275.743 371.735,276.077 372.5,276.5 Z"/></g>
<g><path style="opacity:1" fill="#ffafa4" d="M 374.5,273.5 C 373.449,274.222 372.782,275.222 372.5,276.5C 371.735,276.077 370.902,275.743 370,275.5C 367.276,276.687 364.443,277.353 361.5,277.5C 364.282,276.067 367.282,274.9 370.5,274C 369.549,273.282 369.383,272.449 370,271.5C 371.11,273.037 372.61,273.703 374.5,273.5 Z"/></g>
<g><path style="opacity:1" fill="#ffaea2" d="M 361.5,277.5 C 356.809,279.591 351.809,280.924 346.5,281.5C 346.5,281.167 346.5,280.833 346.5,280.5C 351.468,279.341 356.468,278.341 361.5,277.5 Z"/></g>
<g><path style="opacity:1" fill="#ffa89c" d="M 376.5,284.5 C 378.293,286.426 379.293,288.759 379.5,291.5C 377.707,289.574 376.707,287.241 376.5,284.5 Z"/></g>
<g><path style="opacity:1" fill="#fff7f6" d="M 72.5,297.5 C 79.7988,296.371 82.9654,299.371 82,306.5C 78,311.833 74,311.833 70,306.5C 68.9271,302.9 69.7605,299.9 72.5,297.5 Z"/></g>
<g><path style="opacity:1" fill="#ffc5bc" d="M 130.5,271.5 C 138.061,273.909 145.727,275.909 153.5,277.5C 157.2,279.245 161.2,280.245 165.5,280.5C 165.5,281.167 165.5,281.833 165.5,282.5C 161.802,281.659 158.136,280.659 154.5,279.5C 144.067,300.349 140.734,322.349 144.5,345.5C 143.224,343.438 142.39,341.104 142,338.5C 141.333,331.167 141.333,323.833 142,316.5C 144.254,303.578 147.421,290.911 151.5,278.5C 144.085,277.14 137.085,274.806 130.5,271.5 Z"/></g>
<g><path style="opacity:1" fill="#ffa092" d="M 383.5,302.5 C 385.575,306.474 386.575,310.808 386.5,315.5C 385.057,311.385 384.057,307.052 383.5,302.5 Z"/></g>
<g><path style="opacity:1" fill="#ffeeec" d="M 118.5,318.5 C 120.048,318.821 120.715,319.821 120.5,321.5C 117.752,321.598 117.086,320.598 118.5,318.5 Z"/></g>
<g><path style="opacity:1" fill="#ffa295" d="M 172.5,330.5 C 194.908,330.178 217.242,330.511 239.5,331.5C 237.777,333.218 235.777,334.551 233.5,335.5C 234.29,334.206 235.29,333.039 236.5,332C 214.996,331.832 193.663,331.332 172.5,330.5 Z"/></g>
<g><path style="opacity:1" fill="#ff9f93" d="M 339.5,330.5 C 323.5,331.167 307.5,331.833 291.5,332.5C 290.508,332.672 289.842,332.338 289.5,331.5C 305.992,330.503 322.658,330.17 339.5,330.5 Z"/></g>
<g><path style="opacity:1" fill="#ffc7bf" d="M 233.5,335.5 C 233.027,336.906 232.027,337.573 230.5,337.5C 230.973,336.094 231.973,335.427 233.5,335.5 Z"/></g>
<g><path style="opacity:1" fill="#ffccc4" d="M 230.5,337.5 C 230.027,338.906 229.027,339.573 227.5,339.5C 227.973,338.094 228.973,337.427 230.5,337.5 Z"/></g>
<g><path style="opacity:1" fill="#ffc6bd" d="M 227.5,339.5 C 225.049,342.277 222.049,344.277 218.5,345.5C 220.975,342.759 223.975,340.759 227.5,339.5 Z"/></g>
<g><path style="opacity:1" fill="#ffc9c1" d="M 218.5,345.5 C 217.341,347.25 215.674,348.25 213.5,348.5C 214.659,346.75 216.326,345.75 218.5,345.5 Z"/></g>
<g><path style="opacity:1" fill="#ffcac2" d="M 144.5,345.5 C 146.008,347.181 147.008,349.181 147.5,351.5C 145.461,350.089 144.461,348.089 144.5,345.5 Z"/></g>
<g><path style="opacity:1" fill="#ffa79a" d="M 327.5,347.5 C 333.698,348.47 339.698,349.804 345.5,351.5C 339.134,351.296 333.134,349.963 327.5,347.5 Z"/></g>
<g><path style="opacity:1" fill="#ffc9c1" d="M 147.5,351.5 C 149.262,352.262 150.262,353.596 150.5,355.5C 148.738,354.738 147.738,353.404 147.5,351.5 Z"/></g>
<g><path style="opacity:1" fill="#ffccc4" d="M 213.5,348.5 C 198.928,359.078 182.595,363.911 164.5,363C 171.957,362.863 179.291,361.863 186.5,360C 195.753,356.705 204.753,352.872 213.5,348.5 Z"/></g>
<g><path style="opacity:1" fill="#ffc8c0" d="M 150.5,355.5 C 154.501,358.167 158.834,360.334 163.5,362C 158.116,361.975 153.783,359.808 150.5,355.5 Z"/></g>
</svg>
